# xmcd
#
# Track frame offsets: 
#        150
#        12575
#        26287
#        48662
#        61015
#        77062
#        91747
#        103482
#        117597
#        129487
#        145992
#        160685
#        186002
#        199237
#        213465
#        228742
#        250625
#        270022
#        283055
#        292767
#        310007
#
# Disc length: 4276 seconds
#
# Revision: 8
# Processed by: cddbd v1.5.2PL0 Copyright (c) Steve Scherf et al.
# Submitted via: ExactAudioCopy v1.0b3
#
DISCID=2510b215
DTITLE=Varous - The Great Blues Men
DYEAR=1972
DGENRE=Blues
TTITLE0=Homesick James Williamson - Set A Date
TTITLE1=John Lee Hooker - Dusty Road
TTITLE2=Muddy Waters - Nineteen Years Old
TTITLE3=Jesse Fuller - San Francisco Bay Blues
TTITLE4=Mance Lipscomb - Blues In G
TTITLE5=Mississippi John Hurt - Moanin' The Blues
TTITLE6=Johnny Shines - Dynaflow Blues
TTITLE7=Sonny Terry - Mountain Blues
TTITLE8=Joe Turner and Pete Johnson - It's All Right Baby
TTITLE9=Brownie McGhee and Sonny Terry - Key To The Highway
TTITLE10=Otis Spann - Burning Fire
TTITLE11=Lightning Hopkins - Cotton Field Blues
TTITLE12=Big Bill Broonzy - Louise, Louise Blues
TTITLE13=Johnny Young - Tighten Up On It
TTITLE14=James Cotton - Ain't Nobody's Business
TTITLE15=Jimmy Rushing - How Long, How Long Blues
TTITLE16=Skip James - Cypress Grove Blues
TTITLE17=J.B. Hutto - Please Help
TTITLE18=Fred McDowell - Fred's Rambling Blues
TTITLE19=Robert Pete Williams - On My Way From Texas
TTITLE20=Otis Rush - It's A Mean Old World
EXTD=
EXTT0=
EXTT1=
EXTT2=
EXTT3=
EXTT4=
EXTT5=
EXTT6=
EXTT7=
EXTT8=
EXTT9=
EXTT10=
EXTT11=
EXTT12=
EXTT13=
EXTT14=
EXTT15=
EXTT16=
EXTT17=
EXTT18=
EXTT19=
EXTT20=
PLAYORDER=
